<svg xmlns="http://www.w3.org/2000/svg" viewBox="0 0 900 520"><rect width="900" height="520" rx="32" fill="#f8faf7"/><rect x="50" y="70" width="360" height="360" rx="28" fill="#fff1f2"/><rect x="490" y="70" width="360" height="360" rx="28" fill="#dcfce7"/><text x="90" y="125" font-family="Arial" font-size="32" font-weight="700" fill="#991b1b">Antes</text><text x="530" y="125" font-family="Arial" font-size="32" font-weight="700" fill="#14532d">Depois</text><path d="M80 380c60-120 70-150 115-250M190 385c40-130 80-170 130-240M295 390c20-100 70-150 80-220" stroke="#7c4a1e" stroke-width="16" stroke-linecap="round"/><circle cx="130" cy="350" r="28" fill="#ef4444"/><rect x="240" y="315" width="90" height="55" rx="12" fill="#9ca3af"/><path d="M540 365h260" stroke="#65a30d" stroke-width="30" stroke-linecap="round"/><path d="M570 320h210" stroke="#16a34a" stroke-width="24" stroke-linecap="round"/><circle cx="630" cy="250" r="58" fill="#bbf7d0"/><path d="M605 255c33-60 80-61 102-60-8 46-35 81-71 81-14 0-24-7-31-21Z" fill="#15803d"/><text x="90" y="450" font-family="Arial" font-size="24" fill="#7f1d1d">mato, entulho, água parada</text><text x="530" y="450" font-family="Arial" font-size="24" fill="#14532d">área cuidada e segura</text></svg>