<svg xmlns="http://www.w3.org/2000/svg" viewBox="0 0 900 560"><rect width="900" height="560" rx="46" fill="#effaf0"/><circle cx="710" cy="150" r="105" fill="#fde68a"/><path d="M90 430h720" stroke="#86efac" stroke-width="24" stroke-linecap="round"/><path d="M170 370c0-80 55-145 125-145s125 65 125 145" fill="#fff" stroke="#166534" stroke-width="16"/><circle cx="250" cy="300" r="16" fill="#14532d"/><circle cx="330" cy="300" r="16" fill="#14532d"/><path d="M275 346c25 15 50 15 75 0" stroke="#14532d" stroke-width="12" fill="none" stroke-linecap="round"/><path d="M545 390c-70-20-95-80-70-145 60 20 88 70 70 145z" fill="#16a34a"/><path d="M630 390c70-20 95-80 70-145-60 20-88 70-70 145z" fill="#22c55e"/><path d="M580 405v-110" stroke="#166534" stroke-width="14" stroke-linecap="round"/><text x="100" y="105" fill="#14532d" font-family="Arial" font-size="42" font-weight="800">Quintal limpo</text><text x="100" y="152" fill="#166534" font-family="Arial" font-size="28">também protege cães e gatos</text></svg>
