<svg xmlns="http://www.w3.org/2000/svg" viewBox="0 0 900 520"><rect width="900" height="520" rx="32" fill="#fff7ed"/><circle cx="690" cy="230" r="145" fill="#fed7aa"/><path d="M160 360c80-110 180-112 260-20 70-82 170-100 270 10" fill="none" stroke="#65a30d" stroke-width="32" stroke-linecap="round"/><rect x="170" y="155" width="95" height="135" rx="18" fill="#94a3b8"/><rect x="300" y="190" width="130" height="85" rx="18" fill="#f97316"/><path d="M590 275c46-96 126-107 170-103-10 82-58 142-123 142-22 0-38-12-47-39Z" fill="#16a34a"/><path d="M615 281c38-55 74-83 132-102" stroke="#14532d" stroke-width="10" stroke-linecap="round" fill="none"/><text x="110" y="90" font-family="Arial" font-size="42" font-weight="800" fill="#7c2d12">Resíduo sem destino contamina</text><text x="110" y="135" font-family="Arial" font-size="25" fill="#7c2d12">solo, água, fauna e saúde da vizinhança.</text></svg>